<svg height="80" viewBox="0 0 490 172" width="200" xmlns="http://www.w3.org/2000/svg" xmlns:xlink="http://www.w3.org/1999/xlink"><filter id="a"><feColorMatrix in="SourceGraphic" type="matrix" values="0 0 0 0 0.000000 0 0 0 0 0.400000 0 0 0 0 0.800000 0 0 0 1.000000 0"/></filter><g fill="none" fill-rule="evenodd"><g fill-rule="nonzero" transform="translate(176.088 32)"><path d="m181.12 97.152c4.224 0 7.552-3.328 7.552-7.552v-49.408c0-6.144 1.024-8.32 3.968-8.32 3.072 0 4.224 1.792 4.224 7.808v6.144c0 4.224 3.072 7.552 7.296 7.552 3.968 0 7.296-3.328 7.296-7.552v-6.784c0-14.208-7.424-20.864-18.816-20.864s-19.072 7.424-19.072 21.504v49.92c0 4.224 3.328 7.552 7.552 7.552zm55.296 1.152c11.904 0 19.712-7.424 19.712-21.504v-36.992c0-14.08-7.808-21.504-19.712-21.504-11.648 0-19.456 7.424-19.456 21.504v36.992c0 14.08 7.808 21.504 19.456 21.504zm0-13.568c-2.944 0-4.352-1.92-4.352-8.064v-36.608c0-6.144 1.408-8.32 4.352-8.32 3.328 0 4.608 2.176 4.608 8.32v36.608c0 6.144-1.28 8.064-4.608 8.064zm48.128 13.568c11.904 0 19.712-7.424 19.712-21.504v-36.992c0-14.08-7.808-21.504-19.712-21.504-11.648 0-19.456 7.424-19.456 21.504v36.992c0 14.08 7.808 21.504 19.456 21.504zm0-13.568c-2.944 0-4.352-1.92-4.352-8.064v-36.608c0-6.144 1.408-8.32 4.352-8.32 3.328 0 4.608 2.176 4.608 8.32v36.608c0 6.144-1.28 8.064-4.608 8.064z" fill="#ff6000"/><path d="m140.668 97.36c5.168 0 8.16-1.496 10.88-4.488.816 2.04 2.448 3.4 4.76 3.4 2.72 0 5.032-2.312 5.032-5.032v-49.368c0-13.6-7.072-21.352-19.312-21.352s-17.952 6.936-17.952 16.456v1.36c0 2.856 2.04 5.032 4.624 5.032 3.264 0 4.76-2.04 4.76-4.624v-.136c0-5.304 2.312-8.704 8.568-8.704s9.248 4.216 9.248 13.6v6.12c-2.584-2.856-5.576-4.216-10.608-4.216-10.744 0-17.136 6.664-17.136 20.264v11.424c0 13.6 6.392 20.264 17.136 20.264zm1.088-9.384c-5.848 0-8.16-3.536-8.16-12.92v-7.344c0-9.384 2.312-12.92 8.16-12.92 5.168 0 9.52 4.76 9.52 13.6v5.984c0 8.84-4.352 13.6-9.52 13.6z" fill="#fff"/><path d="m7.552 118.912c4.224 0 7.552-3.328 7.552-7.552v-13.696c1.408.512 2.944.64 4.352.64 11.904 0 19.712-7.424 19.712-21.504v-37.376c0-14.08-7.808-21.504-19.712-21.504-11.648 0-19.456 7.424-19.456 21.504v71.936c0 4.224 3.328 7.552 7.552 7.552zm11.904-34.176c-2.688 0-4.352-2.816-4.352-8.832v-36.224c0-6.144 1.408-8.32 4.352-8.32 3.328 0 4.608 2.176 4.608 8.32v36.992c0 6.144-1.28 8.064-4.608 8.064zm37.248-69.376c4.352 0 7.68-3.328 7.68-7.68s-3.328-7.68-7.68-7.68-7.68 3.328-7.68 7.68 3.328 7.68 7.68 7.68zm0 81.792c4.224 0 7.552-3.328 7.552-7.552v-62.464c0-4.224-3.328-7.68-7.552-7.68s-7.552 3.456-7.552 7.68v62.464c0 4.224 3.328 7.552 7.552 7.552zm36.992 1.024c11.392 0 18.176-7.424 18.176-17.536v-2.048c0-4.224-2.816-7.424-7.04-7.424-4.48 0-7.168 2.944-7.168 7.424v.512c0 3.328-1.152 5.376-3.968 5.376s-4.352-2.048-4.352-8.192v-35.712c0-6.144 1.536-8.32 4.224-8.32 2.944 0 4.096 2.176 4.096 5.632v.256c0 4.608 3.072 6.912 7.04 6.912 4.352 0 7.168-2.944 7.168-7.68v-1.408c0-10.24-6.528-17.408-18.176-17.408s-19.456 7.296-19.456 21.504v36.608c0 14.208 7.808 21.504 19.456 21.504z" fill="#ff6000"/></g><g filter="url(#a)"><path d="m129.314452 123.214299c5.80013 0 10.179036-1.459636 13.136719-4.378906 2.957682-2.919271 4.436523-7.24056 4.436523-12.963868v-55.427734c0-5.7233073-1.478841-10.0445964-4.436523-12.9638672-2.957683-2.9192708-7.336589-4.3789062-13.136719-4.3789062l-11.824781.0009296-3.213305-17.9774921c-1.037109-5.60807296-3.245768-9.60286463-6.625977-11.98437504-3.380208-2.38151042-7.9319657-3.0921224-13.655273-2.13183594l-78.5322265 13.94335938c-5.72330733.9986979-9.76611332 3.1785482-12.12841801 6.5395508s-3.0633138 7.8839518-2.10302734 13.5688476l9.56445315 54.5634766c.9602864 5.6464844 3.1497396 9.6508789 6.5683593 12.0131835 3.4186198 2.362305 8.0087891 3.024902 13.7705079 1.987793l.8639062-.152508.0003516 2.399578c0 5.723308 1.4788411 10.044597 4.4365234 12.963868 2.9576823 2.91927 7.3365886 4.378906 13.1367188 4.378906zm-105.7275391-30.3930666c-1.6132813-1.0947266-2.6695964-2.9864909-3.1689453-5.675293l-9.3339844-53.1230468c-.4993489-2.6503907-.1728516-4.7726237.9794922-6.3666993 1.1523437-1.5940755 3.0152995-2.621582 5.5888672-3.0825195l77.6103515-13.7128906c2.5351563-.4225261 4.609375-.0768229 6.2226559 1.0371094 1.613282 1.1139322 2.669597 3.0152994 3.168946 5.7041015l2.742375 15.4999531-57.8244065-.0009296c-5.8001302 0-10.1790365 1.4500325-13.1367188 4.3500976s-4.4365234 7.230957-4.4365234 12.9926758l-.0003516 43.0211562-2.1314844.364586c-2.5735677.422526-4.6669922.0864258-6.2802734-1.0083008zm85.2058721.0237927c1.277692 0 2.354267.414067 3.229723 1.2422011s1.313184 1.8810474 1.313184 3.15874c0 .7571512-.106475 1.407828-.319424 1.9520304-.212948.5442024-.532371 1.0529134-.958269 1.5261324-2.886639 2.886639-6.293819 5.158093-10.221541 6.814361-3.9277215 1.656268-7.9027651 2.484402-11.9251307 2.484402-4.1170095 0-8.1748666-.804473-12.1735712-2.413419s-7.3467324-3.951383-10.0440835-7.027309c-.4258975-.520542-.7453207-1.0529138-.9582694-1.5971162-.2129488-.5442024-.3194232-1.1238962-.3194232-1.7390816 0-1.2776926.4258975-2.3306059 1.2776926-3.15874s1.9165389-1.2422011 3.1942315-1.2422011c.8044731 0 1.4906414.1656268 2.0585048.4968804.5678633.3312537 1.1357267.7808122 1.7035901 1.3486755 1.8928779 1.9401999 4.2116534 3.4899937 6.9563264 4.6493814 2.744673 1.1593876 5.5130069 1.7390816 8.3050019 1.7390816 2.9339608 0 5.7614472-.603355 8.4824592-1.8100645 2.7210115-1.2067097 5.0042955-2.7328425 6.8498515-4.5783985 1.135727-1.2303706 2.318776-1.8455559 3.549147-1.8455559zm-15.9458928-22.832439c1.3250145 0 2.4015889.4140671 3.229723 1.2422011.828134.8281341 1.2422011 1.9047085 1.2422011 3.229723v1.3703313c0 3.4071803-.9109475 6.0335484-2.7328425 7.8791044s-4.4600936 2.768334-7.9145958 2.768334h-.5678634c-1.7035902 0-3.0404352-.4258976-4.0105351-1.2776926-.9701-.8517951-1.4551499-2.0111828-1.4551499-3.4781632 0-1.2303707.437728-2.283284 1.313184-3.1587401.8754561-.875456 1.9283694-1.313184 3.1587401-1.313184h2.1294876c.3312537 0 .5915244-.0709829.7808122-.2129488.1892878-.1419658.2839317-.3785756.2839317-.7098292v-1.8672118c0-1.3250145.4022365-2.4015889 1.2067096-3.229723.8044732-.828134 1.9165389-1.2422011 3.3361974-1.2422011zm-27.9925365-18.4086389c1.6562682 0 3.0049437.5205415 4.0460266 1.5616243 1.0410828 1.0410829 1.5616243 2.3897584 1.5616243 4.0460266v9.085814c0 1.6562682-.5205415 3.0049438-1.5616243 4.0460266-1.0410829 1.0410829-2.3897584 1.5616243-4.0460266 1.5616243-1.5616243 0-2.8629778-.5205414-3.9040607-1.5616243-1.0410829-1.0410828-1.5616243-2.3897584-1.5616243-4.0460266v-9.085814c0-1.6089462.5205414-2.9457913 1.5616243-4.0105351s2.3424364-1.5971158 3.9040607-1.5971158zm39.5343153 7h17c1.380712 0 2.5 1.1192882 2.5 2.5 0 1.3807119-1.119288 2.5-2.5 2.5h-17c-1.380712 0-2.5-1.1192881-2.5-2.5 0-1.3807118 1.119288-2.5 2.5-2.5z" fill="#06c" fill-rule="nonzero" transform="translate(10.611329 22.396053)"/></g></g></svg>